<svg width="20" height="22" viewBox="0 0 20 22" fill="none" xmlns="http://www.w3.org/2000/svg">
<path d="M7.06626 22C5.63198 22 4.54595 20.6821 3.47219 19.2144C2.33463 17.6129 1.56383 15.807 1.2086 13.9113C0.757242 11.9569 1.03299 9.91631 1.98992 8.12952C2.48444 7.31528 3.18913 6.63081 4.03921 6.13905C4.87288 5.6567 5.82925 5.39331 6.80842 5.37638H6.86758C7.67994 5.42514 8.47519 5.61742 9.21153 5.94314C9.66519 6.15024 10.1533 6.28277 10.6547 6.33495C11.139 6.27839 11.6103 6.14817 12.05 5.94943C12.8979 5.58076 13.8117 5.36403 14.7444 5.31038C14.8681 5.31046 14.9918 5.3164 15.115 5.32819C15.9571 5.35389 16.7811 5.56437 17.5209 5.94277C18.2607 6.32117 18.8959 6.85698 19.3754 7.50724L19.3564 7.51771C18.5985 7.95805 17.9723 8.57202 17.5367 9.30195C17.1011 10.0319 16.8704 10.8538 16.8662 11.6904C16.8675 12.637 17.1641 13.5625 17.7195 14.3527C18.2749 15.1428 19.0648 15.7629 19.9915 16.1365H19.9971L19.9893 16.1585C19.6146 17.2608 19.0737 18.3072 18.3831 19.2657C17.4745 20.5229 16.4454 21.9392 14.8169 21.9675H14.7455C14.142 21.955 13.5493 21.8142 13.0121 21.5558C12.3779 21.257 11.6791 21.0989 10.9695 21.0938C10.226 21.0987 9.49328 21.2617 8.82646 21.5705C8.30345 21.8129 7.73435 21.9553 7.1522 21.9895L7.06626 22ZM10.7105 5.07886C10.6313 5.07886 10.5521 5.07886 10.4739 5.07048C10.4264 4.4542 10.5114 3.83525 10.7241 3.25049C10.9368 2.66573 11.2727 2.12712 11.7118 1.66676C12.5849 0.718153 13.8135 0.121318 15.1429 0C15.2448 1.27505 14.8095 2.53671 13.9307 3.51371C13.5446 3.9757 13.0572 4.35449 12.5017 4.62451C11.9462 4.89452 11.3354 5.04946 10.7105 5.07886Z" fill="white" fill-opacity="0.3"/>
</svg>
