<svg width="126" height="30" viewBox="0 0 126 30" fill="none" xmlns="http://www.w3.org/2000/svg">
<path d="M14.1907 20.3546C16.7539 17.8349 27.1031 6.20644 18.1657 2.71707C9.22824 -0.772296 1.46697 9.21733 1.76877 12.3244C3 25 26.6288 1.06283 34.5 2.71707C56.9181 9.54395 60.5149 29.872 82.7641 23.9936C93.556 21.1423 106.327 16.8442 115.895 10.9472C122.246 7.03267 116.046 8.33799 111.325 8.33799C104.61 8.33799 89.1033 8.33799 103.97 8.33799C110.011 8.33799 116.615 7.37311 122.035 5.80124C127.83 4.1207 119.049 11.0411 118.179 12.3244C115.439 16.3701 112.324 22.9123 112.324 27.9075" stroke="#3D2D5C" stroke-width="3" stroke-linecap="round"/>
</svg>
