<svg width="163" height="41" viewBox="0 0 163 41" fill="none" xmlns="http://www.w3.org/2000/svg">
<path d="M2 39C30.4352 30.014 39.3996 31.945 51.1906 20.3547C53.7539 17.8351 64.103 6.20656 55.1656 2.7172C46.2282 -0.772172 39.9935 9.4531 38.7688 12.3245C37.2781 15.8194 37.2781 26.9057 45.1493 28.56C67.5673 35.3868 97.5148 29.8721 119.764 23.9937C130.556 21.1424 143.326 16.8443 152.894 10.9474C159.246 7.03279 153.046 8.33812 148.325 8.33812C141.61 8.33812 126.103 8.33812 140.97 8.33812C147.011 8.33812 153.615 7.37323 159.035 5.80136C164.83 4.12082 156.049 11.0412 155.179 12.3245C152.439 16.3703 149.324 22.9124 149.324 27.9077" stroke="#3D2D5C" stroke-width="3" stroke-linecap="round"/>
</svg>
