<svg width="1720" height="113" viewBox="0 0 1720 113" fill="none" xmlns="http://www.w3.org/2000/svg">
<path opacity="0.02" d="M-60 2.5C-32.9994 29.5007 -6.0002 110.5 47.9996 110.5C101.999 110.5 101.999 2.5 155.999 2.5C209.999 2.5 210 110.5 263.996 110.5C317.992 110.5 318 2.5 372.001 2.5C426.002 2.5 426.001 110.5 480.001 110.5C534.001 110.5 534.001 2.5 588 2.5C642 2.5 642 110.5 696 110.5C750 110.5 750 2.5 804 2.5C857.999 2.5 858.001 110.5 912 110.5C966 110.5 966 2.5 1020 2.5C1074 2.5 1074 110.5 1128 110.5C1182 110.5 1182 2.5 1236 2.5C1290 2.5 1290 110.5 1344 110.5C1398 110.5 1398 2.5 1452 2.5C1506 2.5 1506 110.5 1560 110.5C1614 110.5 1614 2.5 1668 2.5C1722 2.5 1749 83.5007 1776 110.5" stroke="white" stroke-width="5" stroke-linecap="round" stroke-linejoin="round"/>
</svg>
