<svg width="109" height="40" viewBox="0 0 109 40" fill="none" xmlns="http://www.w3.org/2000/svg">
<path fill-rule="evenodd" clip-rule="evenodd" d="M16 10L0 25.7689L4.18022 29.9667L7.53811 26.6591L16 35L24.4629 26.6591L27.82 29.9667L32 25.7689L16 10ZM16 26.6771L11.8217 22.4397L15.9992 18.3223L20.1768 22.4397L16 26.6771Z" fill="white"/>
<path d="M46.72 35.4C45.2533 35.4 43.9467 35.0933 42.8 34.48C41.6533 33.84 40.7467 32.9733 40.08 31.88C39.44 30.7867 39.12 29.5467 39.12 28.16V22.64C39.12 21.2533 39.4533 20.0133 40.12 18.92C40.7867 17.8267 41.6933 16.9733 42.84 16.36C43.9867 15.72 45.28 15.4 46.72 15.4C48.4533 15.4 50.0133 15.8533 51.4 16.76C52.8133 17.64 53.92 18.84 54.72 20.36C55.5467 21.8533 55.96 23.5467 55.96 25.44C55.96 27.3067 55.5467 29 54.72 30.52C53.92 32.0133 52.8133 33.2 51.4 34.08C50.0133 34.96 48.4533 35.4 46.72 35.4ZM46 31.24C47.0667 31.24 48 31 48.8 30.52C49.6267 30.0133 50.2667 29.32 50.72 28.44C51.2 27.56 51.44 26.5467 51.44 25.4C51.44 24.2533 51.2 23.24 50.72 22.36C50.2667 21.48 49.6267 20.8 48.8 20.32C48 19.8133 47.0667 19.56 46 19.56C44.9333 19.56 43.9867 19.8133 43.16 20.32C42.3333 20.8 41.6933 21.48 41.24 22.36C40.7867 23.24 40.56 24.2533 40.56 25.4C40.56 26.5467 40.7867 27.56 41.24 28.44C41.6933 29.32 42.3333 30.0133 43.16 30.52C43.9867 31 44.9333 31.24 46 31.24ZM36.44 35V6.2H40.84V20.52L40.08 25.16L40.84 29.84V35H36.44ZM58.6831 35V15.8H63.0831V35H58.6831ZM60.8831 12.28C60.1365 12.28 59.5098 12.0267 59.0031 11.52C58.5231 11.0133 58.2831 10.3867 58.2831 9.64C58.2831 8.89333 58.5231 8.26666 59.0031 7.76C59.5098 7.25333 60.1365 7 60.8831 7C61.6565 7 62.2831 7.25333 62.7631 7.76C63.2431 8.26666 63.4831 8.89333 63.4831 9.64C63.4831 10.3867 63.2431 11.0133 62.7631 11.52C62.2831 12.0267 61.6565 12.28 60.8831 12.28ZM75.8181 35.4C73.9515 35.4 72.2581 34.96 70.7381 34.08C69.2181 33.1733 68.0048 31.96 67.0981 30.44C66.2181 28.92 65.7781 27.2267 65.7781 25.36C65.7781 23.4933 66.2181 21.8133 67.0981 20.32C68.0048 18.8267 69.2181 17.64 70.7381 16.76C72.2581 15.8533 73.9515 15.4 75.8181 15.4C77.7115 15.4 79.4181 15.84 80.9381 16.72C82.4581 17.6 83.6581 18.8 84.5381 20.32C85.4448 21.8133 85.8981 23.4933 85.8981 25.36C85.8981 27.2267 85.4448 28.92 84.5381 30.44C83.6581 31.96 82.4581 33.1733 80.9381 34.08C79.4181 34.96 77.7115 35.4 75.8181 35.4ZM75.8181 31.16C76.9115 31.16 77.8715 30.92 78.6981 30.44C79.5515 29.9333 80.2048 29.24 80.6581 28.36C81.1381 27.48 81.3781 26.48 81.3781 25.36C81.3781 24.24 81.1381 23.2533 80.6581 22.4C80.1781 21.5467 79.5248 20.88 78.6981 20.4C77.8715 19.8933 76.9115 19.64 75.8181 19.64C74.7515 19.64 73.7915 19.8933 72.9381 20.4C72.1115 20.88 71.4581 21.5467 70.9781 22.4C70.5248 23.2533 70.2981 24.24 70.2981 25.36C70.2981 26.48 70.5248 27.48 70.9781 28.36C71.4581 29.24 72.1115 29.9333 72.9381 30.44C73.7915 30.92 74.7515 31.16 75.8181 31.16ZM101.717 35V23.92C101.717 22.64 101.304 21.5867 100.477 20.76C99.6772 19.9333 98.6372 19.52 97.3572 19.52C96.5039 19.52 95.7439 19.7067 95.0772 20.08C94.4105 20.4533 93.8905 20.9733 93.5172 21.64C93.1439 22.3067 92.9572 23.0667 92.9572 23.92L91.2372 22.96C91.2372 21.4933 91.5572 20.2 92.1972 19.08C92.8372 17.9333 93.7172 17.04 94.8372 16.4C95.9839 15.7333 97.2639 15.4 98.6772 15.4C100.117 15.4 101.397 15.7733 102.517 16.52C103.637 17.24 104.517 18.1867 105.157 19.36C105.797 20.5067 106.117 21.7067 106.117 22.96V35H101.717ZM88.5572 35V15.8H92.9572V35H88.5572Z" fill="white"/>
</svg>
