<svg width="1720" height="114" viewBox="0 0 1720 114" fill="none" xmlns="http://www.w3.org/2000/svg">
<path opacity="0.02" d="M-60 3C-32.9994 30.0007 -6.0002 111 47.9996 111C101.999 111 101.999 3 155.999 3C209.999 3 210 111 263.996 111C317.992 111 318 3 372.001 3C426.002 3 426.001 111 480.001 111C534.001 111 534.001 3 588 3C642 3 642 111 696 111C750 111 750 3 804 3C857.999 3 858.001 111 912 111C966 111 966 3 1020 3C1074 3 1074 111 1128 111C1182 111 1182 3 1236 3C1290 3 1290 111 1344 111C1398 111 1398 3 1452 3C1506 3 1506 111 1560 111C1614 111 1614 3 1668 3C1722 3 1749 84.0007 1776 111" stroke="white" stroke-width="5" stroke-linecap="round" stroke-linejoin="round"/>
</svg>
