<svg width="19" height="21" viewBox="0 0 19 21" fill="none" xmlns="http://www.w3.org/2000/svg">
<path d="M0.900016 21C0.62963 20.8702 0.401576 20.6663 0.242287 20.4122C0.0829975 20.158 -0.00100481 19.8639 1.60489e-05 19.564V1.439C-0.00133386 1.1386 0.0824993 0.843965 0.241794 0.589271C0.401088 0.334576 0.629318 0.130255 0.900016 0L11.44 10.5L0.900016 21ZM3.26702 20.454L12.352 11.4L14.787 13.826L3.26702 20.453V20.454ZM15.94 13.167L13.26 10.5L15.937 7.834L18.369 9.234C18.5628 9.38218 18.7201 9.57271 18.829 9.79103C18.9378 10.0093 18.9953 10.2497 18.9971 10.4936C18.9988 10.7375 18.9447 10.9786 18.839 11.1985C18.7333 11.4183 18.5787 11.6111 18.387 11.762L15.939 13.17L15.94 13.167ZM12.352 9.593L3.26902 0.547L14.785 7.169L12.352 9.593Z" fill="white" fill-opacity="0.3"/>
</svg>
